<svg width="172" height="160" viewBox="0 0 172 160" fill="none" xmlns="http://www.w3.org/2000/svg">
<path d="M122.168 21.2658H61.0796V18.5454H122.168L123.53 19.9068L122.168 21.2658ZM122.168 18.5454C122.919 18.5454 123.53 19.1541 123.53 19.9068C123.53 20.6571 122.919 21.2658 122.168 21.2658V18.5454ZM120.807 42.6339V19.9068H123.53V42.6339L122.168 43.9952L120.807 42.6339ZM123.53 42.6339C123.53 43.3842 122.919 43.9952 122.168 43.9952C121.416 43.9952 120.807 43.3842 120.807 42.6339H123.53ZM63.5397 41.2725H122.168V43.9952H63.5397V41.2725ZM63.5397 43.9952C62.787 43.9952 62.1784 43.3842 62.1784 42.6339C62.1784 41.8812 62.787 41.2725 63.5397 41.2725V43.9952ZM27.91 79.6226H25.1873L25.2384 77.6573L25.3871 75.7175L25.631 73.8032L25.9702 71.9191L26.4 70.0653L26.9203 68.2486L27.5244 66.4691L28.2143 64.7291L28.9856 63.0309L29.8359 61.3768L30.7605 59.7715L31.7617 58.2151L32.8327 56.712L33.9734 55.2624L35.1814 53.8685L36.4521 52.5373L37.7856 51.2643L39.1771 50.0586L40.6268 48.9179L42.1322 47.8446L43.6863 46.8457L45.2939 45.9188L46.9457 45.0685L48.6439 44.2995L50.3839 43.6096L52.1634 43.0032L53.9824 42.4852L55.8339 42.0554L57.718 41.7162L59.6322 41.47L61.5744 41.3213L63.5397 41.2725V43.9952L61.7114 44.0417L59.9087 44.1787L58.1315 44.4064L56.3822 44.7224L54.6631 45.1196L52.9765 45.6028L51.3248 46.165L49.7079 46.8039L48.1305 47.5194L46.5949 48.3093L45.1034 49.1711L43.6585 50.1004L42.2599 51.097L40.9102 52.1563L39.6162 53.2784L38.3757 54.4609L37.1932 55.7014L36.0711 56.9954L35.0118 58.3428L34.0152 59.7413L33.0859 61.1887L32.224 62.6801L31.4365 64.2157L30.721 65.7931L30.0798 67.41L29.5176 69.0617L29.0367 70.7483L28.6371 72.4674L28.3212 74.2167L28.0935 75.9939L27.9565 77.7967L27.91 79.6226ZM27.91 79.6226C27.91 80.3753 27.299 80.984 26.5487 80.984C25.796 80.984 25.1873 80.3753 25.1873 79.6226H27.91ZM25.1873 79.6249V79.6226H27.91V79.6249H25.1873ZM27.91 79.6249C27.91 80.3753 27.299 80.984 26.5487 80.984C25.796 80.984 25.1873 80.3753 25.1873 79.6249H27.91ZM63.5397 115.252V117.975L61.5744 117.926L59.6322 117.778L57.718 117.531L55.8339 117.192L53.9824 116.762L52.1634 116.244L50.3839 115.638L48.6439 114.948L46.9457 114.179L45.2939 113.329L43.6863 112.402L42.1322 111.403L40.6268 110.33L39.1771 109.189L37.7856 107.983L36.4521 106.71L35.1814 105.379L33.9734 103.985L32.8327 102.536L31.7617 101.033L30.7605 99.476L29.8359 97.8708L28.9856 96.2167L28.2143 94.5185L27.5244 92.7785L26.9203 90.999L26.4 89.1823L25.9702 87.3284L25.631 85.4444L25.3871 83.5301L25.2384 81.588L25.1873 79.6249H27.91L27.9565 81.4509L28.0935 83.2537L28.3212 85.0309L28.6371 86.7802L29.0367 88.4993L29.5176 90.1859L30.0798 91.8376L30.721 93.4545L31.4365 95.0319L32.224 96.5675L33.0859 98.0589L34.0152 99.5062L35.0118 100.905L36.0711 102.252L37.1932 103.546L38.3757 104.787L39.6162 105.969L40.9102 107.091L42.2599 108.151L43.6585 109.147L45.1034 110.076L46.5949 110.938L48.1305 111.728L49.7079 112.444L51.3248 113.083L52.9765 113.645L54.6631 114.128L56.3822 114.525L58.1315 114.841L59.9087 115.069L61.7114 115.206L63.5397 115.252ZM63.5397 115.252C64.2901 115.252 64.9011 115.863 64.9011 116.614C64.9011 117.366 64.2901 117.975 63.5397 117.975V115.252ZM122.168 117.975H63.5397V115.252H122.168L123.53 116.614L122.168 117.975ZM122.168 115.252C122.919 115.252 123.53 115.863 123.53 116.614C123.53 117.366 122.919 117.975 122.168 117.975V115.252ZM120.807 139.341V116.614H123.53V139.341L122.168 140.702L120.807 139.341ZM123.53 139.341C123.53 140.094 122.919 140.702 122.168 140.702C121.416 140.702 120.807 140.094 120.807 139.341H123.53ZM61.0796 137.982H122.168V140.702H61.0796V137.982ZM61.0796 140.702C60.3269 140.702 59.7182 140.094 59.7182 139.341C59.7182 138.59 60.3269 137.982 61.0796 137.982V140.702ZM0 79.6249H2.7227L2.79936 82.6148L3.02471 85.5698L3.39873 88.4807L3.91214 91.3451L4.56726 94.1631L5.35712 96.9252L6.27708 99.6317L7.32481 102.28L8.49798 104.861L9.79196 107.377L11.1998 109.821L12.7237 112.19L14.3546 114.479L16.09 116.686L17.9299 118.807L19.865 120.837L21.8954 122.772L24.0164 124.612L26.2234 126.348L28.514 127.981L30.8813 129.502L33.3252 130.913L35.8411 132.204L38.4245 133.377L41.0705 134.425L43.7769 135.347L46.5414 136.135L49.3571 136.79L52.2238 137.306L55.1347 137.677L58.0874 137.905L61.0796 137.982V140.702L57.948 140.623L54.8582 140.386L51.8103 139.996L48.8088 139.457L45.8584 138.772L42.9662 137.945L40.1296 136.981L37.3605 135.882L34.6563 134.655L32.0219 133.303L29.4665 131.828L26.9877 130.234L24.5903 128.527L22.2834 126.71L20.0648 124.786L17.9415 122.763L15.9157 120.637L13.9922 118.421L12.1755 116.112L10.468 113.717L8.87665 111.238L7.40147 108.68L6.04709 106.048L4.82048 103.344L3.72164 100.573L2.75755 97.7383L1.93284 94.8437L1.24752 91.8934L0.706229 88.8942L0.315945 85.8463L0.0789862 82.7542L0 79.6249ZM0 79.6249C0 78.8723 0.608658 78.2636 1.36135 78.2636C2.11172 78.2636 2.7227 78.8723 2.7227 79.6249H0ZM2.7227 79.6226V79.6249H0V79.6226H2.7227ZM0 79.6226C0 78.8723 0.608658 78.2636 1.36135 78.2636C2.11172 78.2636 2.7227 78.8723 2.7227 79.6226H0ZM61.0796 18.5454V21.2658L58.0874 21.3425L55.1347 21.5701L52.2238 21.9418L49.3571 22.4575L46.5414 23.1127L43.7769 23.9002L41.0705 24.8225L38.4245 25.8702L35.8411 27.0434L33.3252 28.335L30.8813 29.7452L28.514 31.2668L26.2234 32.8977L24.0164 34.6354L21.8954 36.4729L19.865 38.4104L17.9299 40.4408L16.09 42.5619L14.3546 44.7688L12.7237 47.0571L11.1998 49.4267L9.79196 51.8706L8.49798 54.3842L7.32481 56.9675L6.27708 59.6159L5.35712 62.3223L4.56726 65.0845L3.91214 67.9025L3.39873 70.7669L3.02471 73.6778L2.79936 76.6328L2.7227 79.6226H0L0.0789862 76.4934L0.315945 73.4013L0.706229 70.3534L1.24752 67.3519L1.93284 64.4039L2.75755 61.5092L3.72164 58.675L4.82048 55.9035L6.04709 53.1994L7.40147 50.5673L8.87665 48.0096L10.468 45.5308L12.1755 43.1357L13.9922 40.8265L15.9157 38.6079L17.9415 36.4846L20.0648 34.4588L22.2834 32.5376L24.5903 30.7209L26.9877 29.0134L29.4665 27.4197L32.0219 25.9446L34.6563 24.5925L37.3605 23.3659L40.1296 22.2671L42.9662 21.303L45.8584 20.4759L48.8088 19.7906L51.8103 19.2516L54.8582 18.8614L57.948 18.6244L61.0796 18.5454ZM61.0796 18.5454C61.8299 18.5454 62.4409 19.1541 62.4409 19.9068C62.4409 20.6571 61.8299 21.2658 61.0796 21.2658V18.5454Z" fill="#F97316"/>
<path fill-rule="evenodd" clip-rule="evenodd" d="M61.0795 19.9067H122.168V42.6338H63.5397C43.1938 42.6338 26.5486 59.279 26.5486 79.6226V79.6249C26.5486 99.9685 43.1938 116.614 63.5397 116.614H122.168V139.341H61.0795C28.2329 139.341 1.36133 112.469 1.36133 79.6249V79.6226C1.36133 46.7783 28.2329 19.9067 61.0795 19.9067Z" fill="#F97316"/>
<path d="M171.428 0H163.086C163.005 0 162.939 0.0655261 162.939 0.146357V159.101C162.939 159.182 163.005 159.248 163.086 159.248H171.428C171.509 159.248 171.574 159.182 171.574 159.101V0.146357C171.574 0.0655261 171.509 0 171.428 0Z" fill="#F97316"/>
</svg>
